<?xml version="1.0" encoding="UTF-8" standalone="no"?>
<svg
   xmlns:dc="http://purl.org/dc/elements/1.1/"
   xmlns:cc="http://creativecommons.org/ns#"
   xmlns:rdf="http://www.w3.org/1999/02/22-rdf-syntax-ns#"
   xmlns:svg="http://www.w3.org/2000/svg"
   xmlns="http://www.w3.org/2000/svg"
   xmlns:sodipodi="http://sodipodi.sourceforge.net/DTD/sodipodi-0.dtd"
   xmlns:inkscape="http://www.inkscape.org/namespaces/inkscape"
   version="1.1"
   id="Capa_1"
   x="0px"
   y="0px"
   width="512px"
   height="512px"
   viewBox="0 0 438.533 438.533"
   style="enable-background:new 0 0 438.533 438.533;"
   xml:space="preserve"
   class=""
   sodipodi:docname="chevron-right-dark.svg"
   inkscape:version="0.92.4 (5da689c313, 2019-01-14)"><metadata
   id="metadata3674"><rdf:RDF><cc:Work
       rdf:about=""><dc:format>image/svg+xml</dc:format><dc:type
         rdf:resource="http://purl.org/dc/dcmitype/StillImage" /></cc:Work></rdf:RDF></metadata><defs
   id="defs3672" /><sodipodi:namedview
   pagecolor="#ffffff"
   bordercolor="#666666"
   borderopacity="1"
   objecttolerance="10"
   gridtolerance="10"
   guidetolerance="10"
   inkscape:pageopacity="0"
   inkscape:pageshadow="2"
   inkscape:window-width="1108"
   inkscape:window-height="702"
   id="namedview3670"
   showgrid="false"
   inkscape:zoom="1.1308594"
   inkscape:cx="256"
   inkscape:cy="256"
   inkscape:window-x="0"
   inkscape:window-y="0"
   inkscape:window-maximized="0"
   inkscape:current-layer="Capa_1" /><g
   id="g3667"
   style="fill:#000000;fill-opacity:1"><g
     id="g3665"
     style="fill:#000000;fill-opacity:1">
	<path
   d="M409.133,109.203c-19.608-33.592-46.205-60.189-79.798-79.796C295.736,9.801,259.058,0,219.273,0   c-39.781,0-76.47,9.801-110.063,29.407c-33.595,19.604-60.192,46.201-79.8,79.796C9.801,142.8,0,179.489,0,219.267   c0,39.78,9.804,76.463,29.407,110.062c19.607,33.592,46.204,60.189,79.799,79.798c33.597,19.605,70.283,29.407,110.063,29.407   s76.47-9.802,110.065-29.407c33.593-19.602,60.189-46.206,79.795-79.798c19.603-33.596,29.403-70.284,29.403-110.062   C438.533,179.485,428.732,142.795,409.133,109.203z M334.332,232.111L204.71,361.736c-3.617,3.613-7.896,5.428-12.847,5.428   c-4.952,0-9.235-1.814-12.85-5.428l-29.121-29.13c-3.617-3.613-5.426-7.898-5.426-12.847c0-4.941,1.809-9.232,5.426-12.847   l87.653-87.646l-87.657-87.65c-3.617-3.612-5.426-7.898-5.426-12.845c0-4.949,1.809-9.231,5.426-12.847l29.121-29.13   c3.619-3.615,7.898-5.424,12.85-5.424c4.95,0,9.233,1.809,12.85,5.424l129.622,129.621c3.613,3.614,5.42,7.898,5.42,12.847   C339.752,224.213,337.945,228.498,334.332,232.111z"
   data-original="#000000"
   class="active-path"
   data-old_color="#000000"
   fill="#FFFFFF"
   id="path3663"
   style="fill:#000000;fill-opacity:1" />
</g></g> </svg>