<svg clip-rule="evenodd" fill-rule="evenodd" stroke-linejoin="round" stroke-miterlimit="2" viewBox="0 0 404 38" xmlns="http://www.w3.org/2000/svg"><g fill-rule="nonzero"><g fill="#030405"><path d="m52.518 36.407v-35.024c0-.649.541-1.185 1.183-1.185h1.896c.66 0 1.188.536 1.188 1.185v35.024c0 .654-.528 1.188-1.188 1.188h-1.896c-.642 0-1.183-.534-1.183-1.188"/><path d="m108.226 20.12v11.978c0 .511-.251 1-.668 1.308-3.62 2.65-8.501 4.402-13.22 4.402-10.842 0-19.495-8.391-19.495-18.913 0-10.53 8.707-18.803 19.705-18.803 4.912 0 9.654 1.766 13.19 4.623.333.271.409.761.148 1.104l-1.494 1.947c-.272.344-.782.41-1.129.136-2.965-2.401-6.805-3.801-10.715-3.801-8.544 0-15.38 6.569-15.38 14.794 0 8.285 6.886 14.858 15.441 14.858 3.242 0 6.653-1.092 9.473-2.921.218-.136.366-.4.366-.668v-10.044c0-.433.354-.79.792-.79h2.198c.448 0 .788.357.788.79"/><path d="m128.301 36.835v-35.871c0-.427.349-.767.755-.767h2.751c.425 0 .771.34.771.767v35.871c0 .42-.346.761-.771.761h-2.751c-.406 0-.755-.341-.755-.761"/><path d="m164.875 5.073v31.762c0 .42-.33.76-.763.76h-2.746c-.418 0-.765-.34-.765-.76v-31.762c0-.421-.336-.756-.758-.756h-10.655c-.422 0-.772-.349-.772-.772v-2.581c0-.424.35-.766.772-.766h27.163c.419 0 .756.342.756.766v2.581c0 .423-.337.772-.756.772h-10.71c-.417 0-.766.335-.766.756"/><path d="m345.293 37.596h-3c-.332 0-.614-.275-.614-.612v-11.888c0-.107-.015-.216-.074-.307l-13.854-23.666c-.226-.406.065-.925.535-.925h3.023c.197 0 .412.11.5.287l11.429 18.367c.248.386.812.386 1.06 0l11.262-18.367c.105-.177.314-.287.506-.287h2.99c.46 0 .771.515.543.925l-13.599 23.506c-.073.091-.092.195-.092.308v12.047c0 .337-.27.612-.615.612"/><path d="m14.985 33.535h-9.243c-.809 0-1.466-.653-1.466-1.468v-26.285c0-.81.657-1.472 1.466-1.472h9.275c7.57 0 13.708 5.095 14.823 12.258 1.408 8.958-5.778 16.967-14.855 16.967m.14-33.338h-13.659c-.81 0-1.466.662-1.466 1.474v34.453c0 .81.656 1.472 1.466 1.472h13.495c10.996 0 19.388-8.072 19.388-18.701 0-10.635-8.334-18.698-19.224-18.698"/><path d="m314.647 37.596h-3.417c-.223 0-.437-.14-.528-.341l-11.766-26.749c-.217-.451-.854-.451-1.052 0l-11.853 26.749c-.091.201-.294.341-.523.341h-3.302c-.403 0-.672-.428-.521-.801l16.199-36.265c.198-.449.835-.449 1.052 0l16.216 36.265c.17.373-.089.801-.505.801"/><path d="m263.287 36.494c.352.44.044 1.102-.526 1.102h-2.741c-.463 0-.889-.211-1.168-.56l-12.666-15.961c-.458-.587-.06-1.432.676-1.432h6.141c3.091 0 6.493-2.396 7.437-5.347 1.735-5.456-2.297-10.496-7.517-10.496h-13.003c-.25 0-.441.203-.441.437v32.807c0 .306-.246.552-.537.552h-2.716c-.29 0-.551-.246-.551-.552v-35.393c0-.912.753-1.651 1.657-1.651h15.612c4.858 0 10.021 3.8 11.291 8.499 2.102 7.835-3.795 14.938-11.312 14.938h-.074z"/><path d="m403.285 37.596h-3.406c-.214 0-.436-.14-.519-.341l-11.768-26.749c-.215-.451-.85-.451-1.042 0l-11.88 26.749c-.069.201-.281.341-.509.341h-3.295c-.428 0-.695-.428-.525-.801l16.209-36.265c.192-.449.827-.449 1.042 0l16.215 36.265c.157.373-.09.801-.522.801"/></g><path d="m218.269 37.596h-3.406c-.235 0-.429-.14-.513-.341l-11.803-26.749c-.188-.451-.816-.451-1.037 0l-11.849 26.749c-.097.201-.293.341-.521.341h-3.301c-.405 0-.681-.428-.509-.801l16.18-36.265c.221-.449.849-.449 1.037 0l16.251 36.265c.165.373-.12.801-.529.801" fill="#d84737"/></g></svg>