<?xml version="1.0" encoding="UTF-8" standalone="no"?>
<!-- Generator: Adobe Illustrator 19.0.0, SVG Export Plug-In . SVG Version: 6.00 Build 0)  -->

<svg
   xmlns:dc="http://purl.org/dc/elements/1.1/"
   xmlns:cc="http://creativecommons.org/ns#"
   xmlns:rdf="http://www.w3.org/1999/02/22-rdf-syntax-ns#"
   xmlns:svg="http://www.w3.org/2000/svg"
   xmlns="http://www.w3.org/2000/svg"
   xmlns:sodipodi="http://sodipodi.sourceforge.net/DTD/sodipodi-0.dtd"
   xmlns:inkscape="http://www.inkscape.org/namespaces/inkscape"
   version="1.1"
   id="Capa_1"
   x="0px"
   y="0px"
   viewBox="0 0 512 512"
   style="enable-background:new 0 0 512 512;"
   xml:space="preserve"
   sodipodi:docname="instagram.svg"
   inkscape:version="0.92.4 (5da689c313, 2019-01-14)"><metadata
   id="metadata3884"><rdf:RDF><cc:Work
       rdf:about=""><dc:format>image/svg+xml</dc:format><dc:type
         rdf:resource="http://purl.org/dc/dcmitype/StillImage" /></cc:Work></rdf:RDF></metadata><defs
   id="defs3882" /><sodipodi:namedview
   pagecolor="#ffffff"
   bordercolor="#666666"
   borderopacity="1"
   objecttolerance="10"
   gridtolerance="10"
   guidetolerance="10"
   inkscape:pageopacity="0"
   inkscape:pageshadow="2"
   inkscape:window-width="699"
   inkscape:window-height="480"
   id="namedview3880"
   showgrid="false"
   inkscape:zoom="0.4609375"
   inkscape:cx="256"
   inkscape:cy="256"
   inkscape:window-x="0"
   inkscape:window-y="0"
   inkscape:window-maximized="0"
   inkscape:current-layer="Capa_1" />
<g
   id="g3835"
   style="fill:#ffffff;fill-opacity:1">
	<g
   id="g3833"
   style="fill:#ffffff;fill-opacity:1">
		<path
   d="M352,0H160C71.648,0,0,71.648,0,160v192c0,88.352,71.648,160,160,160h192c88.352,0,160-71.648,160-160V160    C512,71.648,440.352,0,352,0z M464,352c0,61.76-50.24,112-112,112H160c-61.76,0-112-50.24-112-112V160C48,98.24,98.24,48,160,48    h192c61.76,0,112,50.24,112,112V352z"
   id="path3831"
   style="fill:#ffffff;fill-opacity:1" />
	</g>
</g>
<g
   id="g3841"
   style="fill:#ffffff;fill-opacity:1">
	<g
   id="g3839"
   style="fill:#ffffff;fill-opacity:1">
		<path
   d="M256,128c-70.688,0-128,57.312-128,128s57.312,128,128,128s128-57.312,128-128S326.688,128,256,128z M256,336    c-44.096,0-80-35.904-80-80c0-44.128,35.904-80,80-80s80,35.872,80,80C336,300.096,300.096,336,256,336z"
   id="path3837"
   style="fill:#ffffff;fill-opacity:1" />
	</g>
</g>
<g
   id="g3847"
   style="fill:#ffffff;fill-opacity:1">
	<g
   id="g3845"
   style="fill:#ffffff;fill-opacity:1">
		<circle
   cx="393.6"
   cy="118.4"
   r="17.056"
   id="circle3843"
   style="fill:#ffffff;fill-opacity:1" />
	</g>
</g>
<g
   id="g3849"
   style="fill:#ffffff;fill-opacity:1">
</g>
<g
   id="g3851"
   style="fill:#ffffff;fill-opacity:1">
</g>
<g
   id="g3853"
   style="fill:#ffffff;fill-opacity:1">
</g>
<g
   id="g3855"
   style="fill:#ffffff;fill-opacity:1">
</g>
<g
   id="g3857"
   style="fill:#ffffff;fill-opacity:1">
</g>
<g
   id="g3859"
   style="fill:#ffffff;fill-opacity:1">
</g>
<g
   id="g3861"
   style="fill:#ffffff;fill-opacity:1">
</g>
<g
   id="g3863"
   style="fill:#ffffff;fill-opacity:1">
</g>
<g
   id="g3865"
   style="fill:#ffffff;fill-opacity:1">
</g>
<g
   id="g3867"
   style="fill:#ffffff;fill-opacity:1">
</g>
<g
   id="g3869"
   style="fill:#ffffff;fill-opacity:1">
</g>
<g
   id="g3871"
   style="fill:#ffffff;fill-opacity:1">
</g>
<g
   id="g3873"
   style="fill:#ffffff;fill-opacity:1">
</g>
<g
   id="g3875"
   style="fill:#ffffff;fill-opacity:1">
</g>
<g
   id="g3877"
   style="fill:#ffffff;fill-opacity:1">
</g>
</svg>