<svg clip-rule="evenodd" fill-rule="evenodd" stroke-linejoin="round" stroke-miterlimit="2" viewBox="0 0 1029 892" xmlns="http://www.w3.org/2000/svg"><g fill-rule="nonzero"><path d="m0 21.41c-.896 0-1.62-.724-1.62-1.62v-1.778c0-10.437 4.885-18.012 11.611-18.012h.022c2.977 0 5.429 2.149 5.906 5.104.137.848.491 2.509.703 3.493l.354 1.684-2.368 1.205-.918-1.028c-.338-.413-1.008-.668-1.778-.668-1.132 0-2.055.923-2.055 2.055l.067.408c.116.887-.509 1.7-1.397 1.816-.882.088-1.701-.513-1.816-1.398l-.081-.617c-.013-3.127 2.364-5.504 5.282-5.504.338 0 .671.027.993.075-.075-.383-.14-.732-.183-1.003-.225-1.386-1.341-2.392-2.658-2.392-4.922.011-8.444 6.222-8.444 14.782v1.778c0 .896-.724 1.62-1.62 1.62" fill="#16214a" transform="matrix(5.19218 0 0 5.19218 482.0256 300.44)"/><path d="m1.053-.943c-.585-.001-1.059.473-1.059 1.059-.001.585.474 1.059 1.059 1.059.586 0 1.06-.474 1.059-1.059.001-.585-.473-1.06-1.059-1.059" fill="#16214a" transform="matrix(.566117 5.16122 5.16122 -.566117 534.0656 320.73)"/><path d="m1.702-1.275c-.979 0-1.774.795-1.774 1.775s.795 1.774 1.775 1.774 1.775-.795 1.775-1.775c-.001-.979-.796-1.774-1.776-1.774" fill="#16214a" transform="matrix(1.46173 4.98217 4.98217 -1.46173 513.2756 279.28)"/><path d="m1.273-.953c-.733-.001-1.326.593-1.326 1.327-.001.733.593 1.326 1.326 1.327.734 0 1.327-.594 1.327-1.328 0-.733-.594-1.326-1.327-1.326" fill="#16214a" transform="matrix(1.46124 4.98232 4.98232 -1.46124 542.7956 283.76)"/><path d="m1.029-.77c-.592 0-1.072.479-1.072 1.071s.479 1.072 1.072 1.072c.591 0 1.071-.48 1.071-1.072 0-.591-.479-1.071-1.071-1.071" fill="#16214a" transform="matrix(1.4606 4.98251 4.98251 -1.4606 564.6656 302.4)"/><path d="m0-19.588c-5.917 0-10.731 4.814-10.731 10.731 0 1.704.386 3.332 1.15 4.839l.394.808c1.382 2.572 3.302 5.096 5.684 7.451 5.105 5.046 9.479 7.719 11.912 7.406 4.251-.585 7.644-4.321 7.894-8.691.101-1.732-.376-2.98-1.1-4.871l-1.634-3.902c-.772-1.72-2.22-4.829-4.227-8.605-.011-.013-.019-.027-.029-.043-1.937-3.111-5.593-5.123-9.313-5.123m8.006 34.499c-3.532 0-8.162-2.809-13.786-8.366-2.613-2.583-4.729-5.367-6.287-8.278l-.413-.839c-.974-1.918-1.492-4.099-1.492-6.285 0-7.703 6.269-13.971 13.972-13.971 1.888 0 3.739.381 5.445 1.086-2.881-6.311-2.497-9.87-2.476-10.048 0-.002.097-.861.18-1.255.18-.877 1.043-1.454 1.913-1.258.876.18 1.44 1.036 1.257 1.913-.061.305-.134.976-.134.976-.002.037-.346 4.152 3.884 11.593 3.168 5.568 5.415 10.356 6.472 12.716l1.669 3.986c.796 2.079 1.47 3.836 1.327 6.26-.34 5.981-4.836 10.909-10.688 11.713-.274.038-.556.057-.843.057" fill="#16214a" transform="matrix(5.19218 0 0 5.19218 499.8056 511.57)"/><path d="m0 28.091c-.493 0-.981-.226-1.301-.655-1.134-1.526-3.149-4.299-3.905-5.713l-.426-.863c-1.004-1.977-1.537-4.22-1.537-6.473 0-7.934 6.453-14.387 14.387-14.387 1.499 0 2.991.233 4.434.695.85.271 1.323 1.183 1.048 2.035-.273.851-1.185 1.328-2.035 1.049-1.122-.356-2.283-.539-3.447-.539-6.148 0-11.147 4.999-11.147 11.147 0 1.77.402 3.463 1.196 5.027l.408.831c.448.834 1.813 2.819 3.626 5.26.534.719.384 1.733-.335 2.267-.29.214-.628.319-.966.319" fill="#16214a" transform="matrix(5.19218 0 0 5.19218 483.8056 408.43)"/><path d="m0 27.318c-.494 0-.982-.225-1.301-.654-1.022-1.376-1.934-2.806-2.704-4.249l-.442-.893c-1.035-2.044-1.588-4.364-1.588-6.689 0-7.275 5.415-13.592 12.596-14.691.858-.142 1.708.469 1.845 1.357.135.882-.472 1.709-1.357 1.845-5.612.861-9.844 5.799-9.844 11.489 0 1.845.419 3.607 1.247 5.24l.424.862c.67 1.255 1.497 2.548 2.425 3.798.533.716.384 1.732-.336 2.266-.289.215-.627.319-.965.319" fill="#16214a" transform="matrix(5.19218 0 0 5.19218 502.3756 419.05)"/><path d="m0 31.366c-.075 0-.147-.005-.223-.016-5.855-.805-10.35-5.732-10.691-11.716-.019-.343-.003-.724.043-1.135.359-3.173 2.012-6.067 4.536-7.947 2.856-2.124 4.492-5.38 4.492-8.932 0-.896.724-1.62 1.62-1.62s1.62.724 1.62 1.62c0 4.52-2.167 8.83-5.799 11.531-1.807 1.347-2.993 3.428-3.25 5.708-.025.217-.035.421-.027.601.249 4.361 3.645 8.097 7.896 8.682.888.121 1.508.939 1.385 1.824-.111.813-.805 1.4-1.602 1.4" fill="#16214a" transform="matrix(5.19218 0 0 5.19218 544.4956 425.92)"/><path d="m0 5.996c-.408-1.215-1.263-2.222-2.371-2.849 1.108-.627 1.963-1.633 2.371-2.848.407 1.215 1.262 2.221 2.37 2.848-1.108.627-1.963 1.634-2.37 2.849m4.21-4.748c-.233-.544-.557-1.025-.963-1.432-.404-.406-.888-.734-1.434-.971-.538-.236-1.126-.357-1.748-.357-.621 0-1.209.121-1.747.357-.546.237-1.029.565-1.435.971-.405.407-.734.889-.972 1.435-.235.539-.356 1.127-.356 1.748s.121 1.209.356 1.748c.238.544.565 1.025.972 1.433.406.406.889.734 1.435.972.538.236 1.126.356 1.747.356.622 0 1.21-.12 1.748-.356.546-.238 1.03-.566 1.434-.972.406-.406.732-.887.963-1.43.229-.54.348-1.13.348-1.751s-.119-1.211-.348-1.751" fill="#68be61" transform="matrix(5.19218 0 0 5.19218 595.61457 692.08)"/><path d="m0-11.821c-.354.355-.532.808-.532 1.359 0 .513.178.956.532 1.33s.808.562 1.36.562h4.551c.985 0 1.921.187 2.807.562.887.374 1.645.886 2.276 1.536.63.651 1.133 1.419 1.507 2.305.374.887.562 1.823.562 2.808s-.188 1.921-.562 2.807c-.374.887-.887 1.655-1.537 2.305s-1.408 1.163-2.276 1.537c-.867.374-1.792.561-2.777.561h-11.762v-5.319h11.762c.551 0 1.005-.187 1.359-.561.355-.375.532-.818.532-1.33 0-.552-.177-1.005-.532-1.359-.354-.355-.808-.533-1.359-.533h-4.61c-.986 0-1.911-.187-2.779-.562-.867-.374-1.625-.886-2.275-1.536s-1.162-1.419-1.537-2.305c-.374-.887-.561-1.822-.561-2.808 0-.984.187-1.921.561-2.807.375-.886.887-1.655 1.537-2.305s1.408-1.163 2.275-1.537c.868-.374 1.813-.561 2.838-.561h8.807v5.319h-8.807c-.552 0-1.006.178-1.36.532" fill="#16214a" transform="matrix(5.19218 0 0 5.19218 30.37957 738.34)"/><path d="m478.661 5271.65h-5.201v-5.2h5.201zm-2.6 3.73h2.6v23.52h-5.201v-18.32h-2.601v-5.2z" fill="#16214a" transform="matrix(5.19218 0 0 5.19218 -2291.35543 -26744.17)"/><path d="m0-21.573c1.478.631 2.768 1.498 3.871 2.601 1.104 1.103 1.97 2.394 2.601 3.871.631 1.478.945 3.044.945 4.699v11.348h-5.378v-4.551-1.596-5.201c0-.945-.177-1.822-.532-2.63s-.837-1.527-1.448-2.157c-.611-.631-1.32-1.123-2.127-1.478-.808-.355-1.685-.532-2.631-.532s-1.832.177-2.659.532c-.828.355-1.547.847-2.158 1.478-.611.63-1.093 1.349-1.448 2.157s-.532 1.685-.532 2.63v11.348h-5.379v-4.551-1.596-5.201c0-.945-.176-1.822-.531-2.63s-.838-1.527-1.448-2.157c-.611-.631-1.321-1.123-2.128-1.478-.808-.355-1.685-.532-2.63-.532-.946 0-1.832.177-2.66.532-.827.355-1.546.847-2.157 1.478-.612.63-1.094 1.349-1.448 2.157-.355.808-.532 1.685-.532 2.63v11.348h-5.379v-4.551-6.797-6.797h-2.659v-5.32h8.038v2.069c.985-.67 2.048-1.182 3.191-1.537 1.143-.354 2.345-.532 3.606-.532 1.891 0 3.654.404 5.289 1.213 1.636.807 3.025 1.9 4.167 3.279 1.104-1.379 2.473-2.472 4.108-3.279 1.635-.809 3.419-1.213 5.349-1.213 1.655 0 3.221.316 4.699.946" fill="#16214a" transform="matrix(5.19218 0 0 5.19218 443.27457 763.81)"/><path d="m0 12.708c.827-.375 1.557-.867 2.188-1.478.629-.611 1.122-1.34 1.476-2.187.356-.847.532-1.744.532-2.689 0-.946-.176-1.832-.532-2.66-.354-.827-.847-1.556-1.476-2.187-.631-.63-1.361-1.123-2.188-1.477-.828-.355-1.714-.532-2.66-.532-.945 0-1.842.177-2.689.532-.847.354-1.586.847-2.216 1.477-.631.631-1.123 1.36-1.478 2.187-.354.828-.531 1.714-.531 2.66 0 .945.177 1.842.531 2.689.355.847.847 1.576 1.478 2.187.63.611 1.369 1.103 2.216 1.478.847.374 1.744.561 2.689.561.946 0 1.832-.187 2.66-.561m2.099-17.732c1.476.65 2.777 1.537 3.9 2.66s2.01 2.433 2.659 3.931c.651 1.497.976 3.092.976 4.787 0 1.694-.325 3.291-.976 4.787-.649 1.498-1.536 2.808-2.659 3.931s-2.424 2.01-3.9 2.66c-1.479.65-3.064.975-4.759.975-1.734 0-3.349-.325-4.847-.975-1.496-.65-2.797-1.537-3.9-2.66-1.104-1.123-1.981-2.433-2.631-3.931-.65-1.496-.975-3.093-.975-4.787 0-1.695.325-3.29.975-4.787.65-1.498 1.527-2.808 2.631-3.931 1.103-1.123 2.404-2.01 3.9-2.66 1.498-.65 3.113-.975 4.847-.975 1.695 0 3.28.325 4.759.975" fill="#16214a" transform="matrix(5.19218 0 0 5.19218 610.04457 674.66)"/><path d="m0-21.633c1.479.63 2.768 1.498 3.872 2.601 1.103 1.103 1.97 2.394 2.601 3.871.63 1.478.945 3.064.945 4.758v11.348h-5.379v-4.551-1.596-5.201c0-.945-.177-1.832-.531-2.659-.356-.828-.838-1.547-1.448-2.158-.612-.611-1.331-1.093-2.158-1.448s-1.715-.532-2.66-.532-1.822.177-2.63.532c-.807.355-1.527.837-2.157 1.448-.631.611-1.123 1.33-1.478 2.158-.355.827-.532 1.714-.532 2.659v11.348h-5.379v-4.551-6.797-6.797h-2.659v-5.378h8.038v2.068c.986-.67 2.049-1.182 3.192-1.537s2.344-.531 3.605-.531c1.695 0 3.28.315 4.758.945" fill="#16214a" transform="matrix(5.19218 0 0 5.19218 805.67457 763.81)"/><path d="m0-13.181c-.906 0-1.763.178-2.571.533-.807.354-1.507.827-2.098 1.418-.592.591-1.064 1.28-1.419 2.069-.354.788-.531 1.635-.531 2.541s.177 1.763.531 2.571c.355.807.827 1.507 1.419 2.098.591.592 1.291 1.054 2.098 1.389.808.335 1.665.503 2.571.503h6.502v-13.122zm14.304 18.323h-2.601-2.601-2.6-6.502c-1.615 0-3.143-.305-4.581-.917-1.438-.61-2.69-1.448-3.753-2.511-1.063-1.064-1.901-2.315-2.512-3.754-.61-1.437-.916-2.965-.916-4.58s.306-3.132.916-4.551c.611-1.419 1.449-2.66 2.512-3.724 1.063-1.063 2.315-1.901 3.753-2.512 1.438-.61 2.966-.916 4.581-.916h11.703v18.264h2.601z" fill="#16214a" transform="matrix(5.19218 0 0 5.19218 954.34457 742.02)"/><g fill="#68be61"><path d="m.232-.165h.137c.008 0 .043-.001.06-.001l.037.117c.013.044.03.056.063.056.023 0 .047-.004.062-.014l-.224-.676c-.015-.003-.043-.004-.06-.004s-.045.001-.061.004l-.226.676.003.005c.014.004.033.007.052.007.016 0 .033-.001.046-.004l.053-.167c.017 0 .05.001.058.001zm.027-.268c.011-.037.029-.1.039-.145h.005c.014.053.035.123.053.181l.046.145c-.016 0-.043-.001-.05-.001h-.1c-.008 0-.035.001-.051.001z" transform="matrix(110.311143111 0 0 110.311143111 138.86608191 889.65197354)"/><path d="m.46-.447c.017.004.028.006.044.006.043 0 .06-.024.06-.06 0-.101-.092-.195-.241-.195-.147 0-.274.109-.274.358 0 .177.069.351.26.351.103 0 .195-.045.25-.1-.007-.025-.03-.054-.053-.069-.058.048-.117.076-.179.076-.104 0-.166-.093-.166-.258 0-.177.055-.272.16-.272.108 0 .141.087.139.163z" transform="matrix(110.311143111 0 0 110.311143111 210.34616829 889.65197354)"/><path d="m.46-.447c.017.004.028.006.044.006.043 0 .06-.024.06-.06 0-.101-.092-.195-.241-.195-.147 0-.274.109-.274.358 0 .177.069.351.26.351.103 0 .195-.045.25-.1-.007-.025-.03-.054-.053-.069-.058.048-.117.076-.179.076-.104 0-.166-.093-.166-.258 0-.177.055-.272.16-.272.108 0 .141.087.139.163z" transform="matrix(110.311143111 0 0 110.311143111 281.7179322 889.65197354)"/><path d="m.519-.09h-.259c-.026 0-.046.001-.066.003 0-.019.001-.033.001-.051v-.164c.023.001.047.001.062.001h.188c.004-.014.005-.032.005-.044s-.001-.03-.005-.044h-.188c-.015 0-.039.001-.062.001v-.14c0-.026-.001-.039-.001-.065.023.001.048 0 .063 0h.237c.006-.016.008-.036.008-.048s0-.026-.003-.042h-.402l-.007.006v.612c0 .041.023.066.061.066h.297c.038 0 .062-.016.068-.05.003-.014.003-.032.003-.041z" transform="matrix(110.311143111 0 0 110.311143111 353.86069722 889.65197354)"/><path d="m.286-.092c-.027 0-.058.001-.089.004v-.531c0-.047-.016-.068-.06-.068h-.04l-.007.006v.616c0 .043.026.066.062.066h.261c.038 0 .063-.017.069-.051.002-.013.003-.031.003-.042z" transform="matrix(110.311143111 0 0 110.311143111 421.81074546 889.65197354)"/><path d="m.519-.09h-.259c-.026 0-.046.001-.066.003 0-.019.001-.033.001-.051v-.164c.023.001.047.001.062.001h.188c.004-.014.005-.032.005-.044s-.001-.03-.005-.044h-.188c-.015 0-.039.001-.062.001v-.14c0-.026-.001-.039-.001-.065.023.001.048 0 .063 0h.237c.006-.016.008-.036.008-.048s0-.026-.003-.042h-.402l-.007.006v.612c0 .041.023.066.061.066h.297c.038 0 .062-.016.068-.05.003-.014.003-.032.003-.041z" transform="matrix(110.311143111 0 0 110.311143111 483.80305785 889.65197354)"/><path d="m.539-.482c0-.133-.088-.205-.227-.205-.068 0-.14.002-.215.003l-.006.007v.677c.015.003.036.004.052.004.017 0 .037-.001.053-.004v-.275h.082c.062 0 .084.036.101.082l.05.135c.016.043.03.065.07.065.027 0 .058-.012.072-.033-.023-.018-.035-.045-.045-.072l-.044-.117c-.014-.039-.038-.073-.071-.085.073-.023.128-.09.128-.182zm-.343-.122c.034.001.082.001.111.001.098 0 .122.06.122.121 0 .058-.024.12-.122.12-.028 0-.072.001-.111.002z" transform="matrix(110.311143111 0 0 110.311143111 551.75310609 889.65197354)"/><path d="m.232-.165h.137c.008 0 .043-.001.06-.001l.037.117c.013.044.03.056.063.056.023 0 .047-.004.062-.014l-.224-.676c-.015-.003-.043-.004-.06-.004s-.045.001-.061.004l-.226.676.003.005c.014.004.033.007.052.007.016 0 .033-.001.046-.004l.053-.167c.017 0 .05.001.058.001zm.027-.268c.011-.037.029-.1.039-.145h.005c.014.053.035.123.053.181l.046.145c-.016 0-.043-.001-.05-.001h-.1c-.008 0-.035.001-.051.001z" transform="matrix(110.311143111 0 0 110.311143111 623.45620932 889.65197354)"/><path d="m.193 0c.017.003.038.004.054.004s.036-.001.053-.004v-.594c.014 0 .045.001.058.001h.065c.041 0 .06-.013.06-.048 0-.014-.003-.03-.006-.042h-.46c-.003.016-.004.032-.004.045s.001.029.004.045h.119c.014 0 .044-.001.057-.001h.001c0 .028-.001.047-.001.074z" transform="matrix(110.311143111 0 0 110.311143111 689.74956096 889.65197354)"/><path d="m.161-.342c0-.121.028-.269.168-.269.139 0 .167.148.167.269s-.028.27-.167.27c-.14 0-.168-.149-.168-.27zm-.112 0c0 .109.028.227.107.295.041.036.093.06.173.06s.132-.024.173-.06c.079-.068.106-.186.106-.295 0-.108-.027-.226-.106-.294-.041-.036-.093-.06-.173-.06s-.132.024-.173.06c-.079.068-.107.186-.107.294z" transform="matrix(110.311143111 0 0 110.311143111 746.44681614 889.65197354)"/><path d="m.539-.482c0-.133-.088-.205-.227-.205-.068 0-.14.002-.215.003l-.006.007v.677c.015.003.036.004.052.004.017 0 .037-.001.053-.004v-.275h.082c.062 0 .084.036.101.082l.05.135c.016.043.03.065.07.065.027 0 .058-.012.072-.033-.023-.018-.035-.045-.045-.072l-.044-.117c-.014-.039-.038-.073-.071-.085.073-.023.128-.09.128-.182zm-.343-.122c.034.001.082.001.111.001.098 0 .122.06.122.121 0 .058-.024.12-.122.12-.028 0-.072.001-.111.002z" transform="matrix(110.311143111 0 0 110.311143111 824.54731701 889.65197354)"/></g><path d="m0 13.384v-13.383c0-.251.203-.455.454-.455h.725c.251 0 .454.204.454.455v13.383c0 .251-.203.454-.454.454h-.725c-.251 0-.454-.203-.454-.454" fill="#030405" transform="matrix(4.92609 0 0 4.92609 233.01863756 2.60849825)"/><path d="m0 .895v4.579c0 .197-.096.381-.256.498-1.387 1.014-3.247 1.683-5.053 1.683-4.144 0-7.452-3.205-7.452-7.228 0-4.022 3.328-7.187 7.534-7.187 1.872 0 3.689.675 5.038 1.766.129.105.155.293.053.425l-.568.741c-.104.135-.298.16-.429.054-1.137-.92-2.606-1.455-4.094-1.455-3.267 0-5.88 2.512-5.88 5.656 0 3.165 2.633 5.676 5.9 5.676 1.234 0 2.543-.413 3.621-1.113.086-.056.137-.153.137-.256v-3.839c0-.168.136-.304.303-.304h.842c.168 0 .304.136.304.304" fill="#030405" transform="matrix(4.92609 0 0 4.92609 337.90987193 33.4704521)"/><path d="m0 13.708v-13.709c0-.161.131-.291.292-.291h1.05c.161 0 .292.13.292.291v13.709c0 .161-.131.292-.292.292h-1.05c-.161 0-.292-.131-.292-.292" fill="#030405" transform="matrix(4.92609 0 0 4.92609 375.69298223 1.81539776)"/><path d="m0-10.565v12.137c0 .161-.131.292-.292.292h-1.05c-.161 0-.292-.131-.292-.292v-12.137c0-.161-.13-.292-.292-.292h-4.071c-.161 0-.292-.13-.292-.292v-.988c0-.161.131-.292.292-.292h10.381c.161 0 .292.131.292.292v.988c0 .162-.131.292-.292.292h-4.092c-.161 0-.292.131-.292.292" fill="#030405" transform="matrix(4.92609 0 0 4.92609 444.55972043 61.598426)"/><path d="m0 14.293h-1.144c-.128 0-.234-.105-.234-.235v-4.54c0-.042-.011-.083-.032-.119l-5.294-9.045c-.092-.157.021-.354.202-.354h1.155c.081 0 .157.042.2.111l4.365 7.019c.092.148.307.148.399-.001l4.306-7.017c.043-.069.119-.112.2-.112h1.137c.18 0 .293.196.203.353l-5.196 8.985c-.021.036-.032.076-.032.118v4.602c0 .13-.105.235-.235.235" fill="#030405" transform="matrix(4.92609 0 0 4.92609 784.2284042 .37205339)"/><path d="m0 11.191h-3.534c-.311 0-.563-.252-.563-.562v-10.044c0-.311.252-.563.563-.563h3.541c2.894 0 5.239 1.946 5.667 4.685.536 3.421-2.21 6.484-5.674 6.484m.047-12.742h-5.215c-.311 0-.563.252-.563.563v13.167c0 .311.252.563.563.563h5.155c4.205 0 7.41-3.084 7.41-7.146 0-4.064-3.184-7.147-7.35-7.147" fill="#030405" transform="matrix(4.92609 0 0 4.92609 162.37850696 8.00749289)"/><path d="m0 14.334h-1.303c-.086 0-.163-.051-.198-.129l-4.506-10.224c-.075-.172-.319-.172-.395-.001l-4.533 10.225c-.035.078-.112.129-.198.129h-1.261c-.157 0-.261-.162-.197-.305l6.19-13.859c.076-.17.319-.17.395 0l6.203 13.859c.065.143-.04.305-.197.305" fill="#030405" transform="matrix(4.92609 0 0 4.92609 726.51433376 .16515761)"/><path d="m0 13.529c.137.168.015.419-.201.419h-1.051c-.173 0-.336-.078-.443-.212l-4.842-6.101c-.176-.222-.018-.549.266-.549h2.336c1.186 0 2.492-.911 2.851-2.043.663-2.084-.88-4.009-2.869-4.009h-4.977c-.092 0-.169.076-.169.169v12.536c0 .115-.093.209-.209.209h-1.035c-.114 0-.209-.094-.209-.209v-13.528c0-.348.282-.63.63-.63h5.973c1.857 0 3.828 1.453 4.309 3.247.804 2.996-1.442 5.711-4.313 5.711h-.034z" fill="#030405" transform="matrix(4.92609 0 0 4.92609 629.82503924 2.06170226)"/><path d="m0 14.334h-1.303c-.086 0-.164-.051-.198-.129l-4.506-10.224c-.075-.172-.319-.172-.395-.001l-4.533 10.225c-.035.078-.112.129-.198.129h-1.261c-.157 0-.261-.162-.198-.305l6.191-13.859c.076-.17.318-.17.395 0l6.203 13.859c.065.143-.04.305-.197.305" fill="#030405" transform="matrix(4.92609 0 0 4.92609 893.41518905 .16515761)"/><path d="m0 14.334h-1.303c-.085 0-.163-.051-.197-.129l-4.506-10.224c-.076-.172-.32-.172-.396-.001l-4.533 10.225c-.034.078-.112.129-.197.129h-1.262c-.156 0-.261-.162-.197-.305l6.19-13.859c.077-.17.319-.17.395 0l6.204 13.859c.064.143-.041.305-.198.305" fill="#da4737" transform="matrix(4.92609 0 0 4.92609 545.07658688 .16515761)"/><path d="m.092.217v-.697h.038l.004.06h.003c.023-.019.049-.035.077-.05.027-.015.056-.022.086-.022.064 0 .112.022.144.066.032.045.048.104.048.179 0 .041-.006.077-.017.109s-.027.059-.046.081c-.02.023-.043.04-.068.051-.026.012-.053.018-.081.018-.023 0-.046-.005-.07-.016-.024-.01-.049-.024-.074-.043v.264zm.186-.244c.024 0 .046-.005.067-.016s.038-.026.053-.045.026-.043.035-.07c.008-.027.012-.056.012-.089 0-.029-.003-.057-.008-.082-.006-.025-.015-.047-.027-.066-.012-.018-.028-.032-.047-.043-.019-.01-.043-.015-.07-.015-.024 0-.049.007-.074.02-.026.014-.054.034-.083.059v.285c.028.023.054.039.078.048s.045.014.064.014z" transform="matrix(50 0 0 50 426.356 186.8175)"/><path d="m.092 0v-.48h.038l.004.089h.003c.016-.03.036-.054.059-.073s.048-.028.077-.028c.009 0 .018.001.025.002s.015.004.023.008l-.01.04c-.008-.003-.015-.006-.021-.007s-.014-.001-.023-.001c-.021 0-.044.009-.067.027-.024.019-.045.051-.064.096v.327z" transform="matrix(50 0 0 50 453.556 186.8175)"/><path d="m.274.012c-.031 0-.059-.006-.086-.017s-.051-.028-.071-.05c-.02-.021-.036-.047-.047-.079-.012-.031-.018-.066-.018-.105s.006-.075.018-.106c.011-.031.027-.058.047-.08.019-.021.042-.038.067-.05.025-.011.05-.017.077-.017.057 0 .102.019.135.058s.049.093.049.164v.018c0 .006-.001.012-.002.018h-.346c.001.03.005.058.014.083.009.026.021.048.037.066.015.019.034.033.056.043.022.011.047.016.074.016.026 0 .05-.004.071-.012.021-.007.04-.018.058-.031l.018.034c-.019.011-.04.022-.063.032s-.053.015-.088.015zm-.177-.282h.306c0-.062-.013-.108-.038-.139-.025-.03-.06-.045-.103-.045-.021 0-.04.004-.059.012-.019.009-.035.021-.05.037-.016.016-.028.035-.037.058-.01.023-.016.048-.019.077z" transform="matrix(50 0 0 50 468.906 186.8175)"/><path d="m.208.012c-.036 0-.069-.006-.099-.02-.03-.013-.056-.028-.077-.046l.026-.033c.021.017.043.032.066.043.023.012.052.018.087.018.038 0 .067-.01.086-.029s.028-.041.028-.066c0-.015-.003-.028-.01-.039s-.017-.021-.028-.029-.024-.015-.037-.021c-.014-.006-.028-.012-.042-.017-.018-.007-.036-.014-.054-.021-.019-.007-.035-.016-.05-.027-.015-.01-.026-.022-.035-.037-.01-.014-.014-.031-.014-.052 0-.017.003-.034.01-.05.007-.015.017-.029.03-.041.013-.011.03-.02.049-.027s.041-.01.066-.01.05.005.075.014c.024.009.045.021.062.036l-.024.031c-.016-.012-.033-.022-.051-.031-.018-.008-.039-.012-.064-.012-.019 0-.035.002-.048.007s-.024.012-.033.02-.016.017-.02.028c-.005.011-.007.021-.007.032 0 .014.003.026.01.035.006.01.014.019.025.026s.023.014.037.019c.013.006.027.012.041.017.019.007.037.015.056.022s.036.016.051.027.027.024.036.039c.009.016.014.036.014.059 0 .018-.003.035-.01.051-.007.017-.018.031-.032.043-.014.013-.031.023-.051.03s-.043.011-.069.011z" transform="matrix(50 0 0 50 493.056 186.8175)"/><path d="m.274.012c-.031 0-.059-.006-.086-.017s-.051-.028-.071-.05c-.02-.021-.036-.047-.047-.079-.012-.031-.018-.066-.018-.105s.006-.075.018-.106c.011-.031.027-.058.047-.08.019-.021.042-.038.067-.05.025-.011.05-.017.077-.017.057 0 .102.019.135.058s.049.093.049.164v.018c0 .006-.001.012-.002.018h-.346c.001.03.005.058.014.083.009.026.021.048.037.066.015.019.034.033.056.043.022.011.047.016.074.016.026 0 .05-.004.071-.012.021-.007.04-.018.058-.031l.018.034c-.019.011-.04.022-.063.032s-.053.015-.088.015zm-.177-.282h.306c0-.062-.013-.108-.038-.139-.025-.03-.06-.045-.103-.045-.021 0-.04.004-.059.012-.019.009-.035.021-.05.037-.016.016-.028.035-.037.058-.01.023-.016.048-.019.077z" transform="matrix(50 0 0 50 513.306 186.8175)"/><path d="m.092 0v-.48h.038l.004.074h.003c.025-.025.05-.045.076-.062.026-.016.056-.024.089-.024.05 0 .087.015.11.045s.035.076.035.139v.308h-.044v-.302c0-.051-.008-.089-.025-.114-.017-.024-.046-.036-.085-.036-.029 0-.055.008-.078.022-.023.015-.05.038-.079.068v.362z" transform="matrix(50 0 0 50 537.456 186.8175)"/><path d="m.223.012c-.023 0-.043-.003-.058-.01-.015-.008-.028-.017-.037-.03s-.016-.028-.019-.046c-.004-.018-.006-.038-.006-.059v-.309h-.075v-.034l.076-.004.006-.139h.038v.139h.139v.038h-.139v.313c0 .015.001.029.004.041.002.013.006.023.012.032s.014.016.025.021c.01.006.023.008.04.008.009 0 .02-.001.031-.005.011-.003.02-.006.029-.01l.012.036c-.014.005-.028.01-.042.013s-.026.005-.036.005z" transform="matrix(50 0 0 50 564.056 186.8175)"/><path d="m.208.012c-.036 0-.069-.006-.099-.02-.03-.013-.056-.028-.077-.046l.026-.033c.021.017.043.032.066.043.023.012.052.018.087.018.038 0 .067-.01.086-.029s.028-.041.028-.066c0-.015-.003-.028-.01-.039s-.017-.021-.028-.029-.024-.015-.037-.021c-.014-.006-.028-.012-.042-.017-.018-.007-.036-.014-.054-.021-.019-.007-.035-.016-.05-.027-.015-.01-.026-.022-.035-.037-.01-.014-.014-.031-.014-.052 0-.017.003-.034.01-.05.007-.015.017-.029.03-.041.013-.011.03-.02.049-.027s.041-.01.066-.01.05.005.075.014c.024.009.045.021.062.036l-.024.031c-.016-.012-.033-.022-.051-.031-.018-.008-.039-.012-.064-.012-.019 0-.035.002-.048.007s-.024.012-.033.02-.016.017-.02.028c-.005.011-.007.021-.007.032 0 .014.003.026.01.035.006.01.014.019.025.026s.023.014.037.019c.013.006.027.012.041.017.019.007.037.015.056.022s.036.016.051.027.027.024.036.039c.009.016.014.036.014.059 0 .018-.003.035-.01.051-.007.017-.018.031-.032.043-.014.013-.031.023-.051.03s-.043.011-.069.011z" transform="matrix(50 0 0 50 579.156 186.8175)"/></g></svg>